<svg id="CAD_logo_horizontal_full" data-name="CAD logo horizontal full" xmlns="http://www.w3.org/2000/svg" viewBox="0 0 506.78 258.37"><defs><style>.cls-1{fill:#fff;}.cls-2{fill:#2031e5;}.cls-3{fill:#fc3e46;}.cls-4{fill:#fff33d;}.cls-5{fill:#0048ff;}</style></defs><title>logo</title><path class="cls-1" d="M242.27,258.37H215.51V220.14h7.65v30.58h19.11Z"/><path class="cls-1" d="M259.9,258.37h-7.63V227.79H240.78v-7.65h30.58v7.65H259.9Z"/><path class="cls-1" d="M204.78,234.18a19,19,0,0,0-4.93-8.44,20,20,0,0,0-3.87-3,19.18,19.18,0,0,0-14.72-1.93,19.18,19.18,0,0,0-4.56,1.93,19.65,19.65,0,0,0-3.86,3,19,19,0,0,0-5.61,13.52v19.11h7.65v-7.65h22.93v7.65h7.65V239.26A18.93,18.93,0,0,0,204.78,234.18Zm-29,.61a11.63,11.63,0,0,1,2.46-3.65,11.39,11.39,0,0,1,3.64-2.45,11.1,11.1,0,0,1,4.45-.9,11.23,11.23,0,0,1,4.47.9,11.39,11.39,0,0,1,6.1,6.1,11.19,11.19,0,0,1,.9,4.47v3.81H174.88v-3.81A11,11,0,0,1,175.79,234.79Z"/><path class="cls-1" d="M357,258.37h-26.2V220.14H357v7.65H338.46v7.65H357v7.65H338.46v7.63H357Z"/><path class="cls-1" d="M393.78,258.37H367V220.14h7.66v30.58h19.11Z"/><path class="cls-1" d="M430,258.37H403.78V220.14H430v7.65H411.43v7.65H430v7.65H411.43v7.63H430Z"/><path class="cls-1" d="M459.11,258.37h-7.63V227.79H440v-7.65h30.58v7.65H459.11Z"/><path class="cls-1" d="M506.78,258.37H480.57V220.14h26.21v7.65H488.22v7.65h18.56v7.65H488.22v7.63h18.56Z"/><path class="cls-1" d="M320.13,234.18a18.86,18.86,0,0,0-1.94-4.56,19.22,19.22,0,0,0-6.85-6.87,19,19,0,0,0-9.65-2.61H290.17v15.3h7.65v-7.65h3.87a11.06,11.06,0,0,1,4.47.91,11.63,11.63,0,0,1,3.65,2.46,11.5,11.5,0,0,1,2.45,3.64,11.62,11.62,0,0,1,0,8.92,11.32,11.32,0,0,1-2.45,3.65,11.63,11.63,0,0,1-3.65,2.46,11.4,11.4,0,0,1-4.47.89H290.17v7.65h11.52a18.59,18.59,0,0,0,5.08-.68,19.08,19.08,0,0,0,4.57-1.93,19.22,19.22,0,0,0,6.85-6.87,19.11,19.11,0,0,0,1.94-14.71Z"/><path class="cls-1" d="M250.29,179.91a19.88,19.88,0,0,1-.72,5.37,20.51,20.51,0,0,1-2,4.84,20.27,20.27,0,0,1-3.16,4.11,20.59,20.59,0,0,1-4.1,3.18,20,20,0,0,1-10.22,2.77,19.88,19.88,0,0,1-5.37-.72,20.47,20.47,0,0,1-9-5.23,20.32,20.32,0,0,1-5.23-8.95,20.42,20.42,0,0,1,0-10.75,20.19,20.19,0,0,1,2.05-4.84,20.9,20.9,0,0,1,3.18-4.09,19.76,19.76,0,0,1,4.12-3.17,20.68,20.68,0,0,1,4.83-2,20.42,20.42,0,0,1,10.75,0,20.58,20.58,0,0,1,4.84,2,20.17,20.17,0,0,1,4.1,3.17,20.42,20.42,0,0,1,3.16,4.09,20.15,20.15,0,0,1,2.76,10.22Zm-7.78,0a12.06,12.06,0,0,0-1-4.85,12.38,12.38,0,0,0-6.62-6.62,12.4,12.4,0,0,0-9.71,0,12.5,12.5,0,0,0-6.64,6.62,12.06,12.06,0,0,0-1,4.85,11.85,11.85,0,0,0,1,4.82,12.66,12.66,0,0,0,6.64,6.63,12.52,12.52,0,0,0,9.71,0,12.54,12.54,0,0,0,4-2.68,12.67,12.67,0,0,0,2.66-4A11.85,11.85,0,0,0,242.51,179.91Z"/><path class="cls-1" d="M293.48,200.18h-8.67l-15.63-26.67v26.67h-8.11V159.67h8.68l15.62,26.7v-26.7h8.11Z"/><path class="cls-1" d="M323.83,200.18h-8.08v-32.4H303.57v-8.11H336v8.11H323.83Z"/><path class="cls-1" d="M354.17,200.18h-8.11V159.67h16.22a15.91,15.91,0,0,1,8.15,2.22,16.34,16.34,0,0,1,7.46,9.7A16.17,16.17,0,0,1,378,180a16.59,16.59,0,0,1-1.5,3.76,15.56,15.56,0,0,1-2.39,3.28,16.16,16.16,0,0,1-3.16,2.6l4.49,10.59h-8.62L363.24,192l-9.07.06Zm0-32.4V184h8.11a7.9,7.9,0,0,0,3.14-.63,8.11,8.11,0,0,0,2.57-1.74,8.38,8.38,0,0,0,1.74-2.58,8.19,8.19,0,0,0,0-6.3,8.15,8.15,0,0,0-4.31-4.33,7.9,7.9,0,0,0-3.14-.63Z"/><path class="cls-1" d="M468.91,200.18H440.55V159.67h8.11v32.41h20.25Z"/><path class="cls-1" d="M506.78,200.18H479V159.67h27.78v8.11H487.11v8.11h19.67V184H487.11v8.09h19.67Z"/><path class="cls-1" d="M168,185.31a19.89,19.89,0,0,0,2.05,4.83,21,21,0,0,0,3.16,4.1,20.12,20.12,0,0,0,14.32,5.94h12.21v-8.11H187.48a11.8,11.8,0,0,1-4.73-1,12.34,12.34,0,0,1-3.87-2.61,12.21,12.21,0,0,1-2.6-3.86,11.79,11.79,0,0,1-.94-4.71,12,12,0,0,1,.94-4.74,12.1,12.1,0,0,1,6.47-6.47,12,12,0,0,1,4.73-.94h12.21v-8.11H187.48a20,20,0,0,0-10.22,2.77,19.5,19.5,0,0,0-4.1,3.18,20.88,20.88,0,0,0-3.16,4.09,20.31,20.31,0,0,0-2.05,15.6Z"/><path class="cls-1" d="M429.77,179.91a19.5,19.5,0,0,1-.73,5.37,20.91,20.91,0,0,1-2,4.84,20.32,20.32,0,0,1-3.17,4.11,20.59,20.59,0,0,1-4.1,3.18,20.29,20.29,0,0,1-15.59,2.05A20.4,20.4,0,0,1,390,185.28a20.15,20.15,0,0,1,0-10.75,19.8,19.8,0,0,1,2-4.84,20.52,20.52,0,0,1,3.18-4.09,20,20,0,0,1,4.11-3.17,20.68,20.68,0,0,1,4.83-2,20.46,20.46,0,0,1,10.76,0,20.4,20.4,0,0,1,12.1,9.3,20.55,20.55,0,0,1,2,4.84A19.63,19.63,0,0,1,429.77,179.91Zm-7.79,0a12.22,12.22,0,0,0-1-4.85,12.44,12.44,0,0,0-6.63-6.62,12.4,12.4,0,0,0-9.71,0,12.71,12.71,0,0,0-4,2.66,12.54,12.54,0,0,0-2.68,4,12.22,12.22,0,0,0-1,4.85,12,12,0,0,0,1,4.82,12.66,12.66,0,0,0,6.64,6.63,12.52,12.52,0,0,0,9.71,0,12.54,12.54,0,0,0,4-2.68,12.69,12.69,0,0,0,2.67-4A12,12,0,0,0,422,179.91Z"/><path class="cls-2" d="M100.67,31.11c-13.8,5.44-21.59-4.36-21.59-4.36s-1.66-2.42,2.26-2.62a59,59,0,0,1,7.8.57A90.94,90.94,0,0,1,100.67,31.11Z"/><path class="cls-3" d="M93,76.55c-9.7,0-10.29,7-10.29,7s-1.31,7.76,8.12,3.19c0,0,9.71-5.29,11,3.31a24.78,24.78,0,0,0,1.68-8.24C100.94,76.48,93,76.55,93,76.55Z"/><path class="cls-4" d="M23.49,50.37,33.72,46l2.71,15.41.08.47a3.59,3.59,0,0,0,.33,1,3.51,3.51,0,0,0,4.72,1.53l13.25-6.76,7,6.7a1.93,1.93,0,0,0,2.84-2.61l-7.37-9.11a2.43,2.43,0,0,0-2.7-.75l-.31.11L43.51,55.87l-.89-17.55a5.08,5.08,0,0,0-.18-1.08,4.8,4.8,0,0,0-5.94-3.3l-.6.17L19.4,38.82a6.77,6.77,0,0,0-.71.26,6.13,6.13,0,1,0,4.8,11.29Z"/><path class="cls-4" d="M64.34,71.55l-14.83-2a2.56,2.56,0,0,0-2.45,1.08l-.17.24L38.7,82.7,28.17,67a4.57,4.57,0,0,0-.56-.69,4.71,4.71,0,0,0-6.68,0l-.34.33L1.82,85.11l-.37.41a6.13,6.13,0,1,0,9.36,7.92L24.18,77.63,35.69,91.49l.23.28a3.46,3.46,0,0,0,1,.81,3.59,3.59,0,0,0,4.9-1.33l9.15-16,13.11.17a1.94,1.94,0,0,0,.29-3.86Z"/><path class="cls-1" d="M92.46,119.71c-3-.92-3.43-3.07-3.43-3.07a7.94,7.94,0,0,1-.47-3.32c12.86-2.19,26-13.58,33.13-30.29,9.7-22.8,4.52-46.84-11.59-53.7-12-5.13-26.77.79-37.49,13.62,0,0-6,6.81,5.36,7.43,9.4,1,17.29,6.46,22.14,16.33,6.45,13.12,3.39,27.83-6.84,32.86-9.12,4.49-19.73,1.65-26.63-8.8,0,0-2.53-4.11-4.5-.16a9.85,9.85,0,0,0,0,8.4,25.36,25.36,0,0,0,12.29,12.62h-.07a4.9,4.9,0,0,1-.79,3.41s-.83,1.53-3.55,1.75c0,0-9.74.84-16.28,5.13v0c-26,14-38.78,51.93-39.32,53.55a8.5,8.5,0,1,0,16.15,5.31c2.24-6.81,9.1-22.63,19.26-34-17.84,43.53-14,111.62-14,111.62H58.45c-5.21-37.26,5.54-39,5.54-39s10.16-4.88,21.5,39H110.9S90,209.83,100.21,153.66c4.47,10.53,9.31,25.76,8.81,41.64a8.49,8.49,0,0,0,8.22,8.76h.28a8.5,8.5,0,0,0,8.49-8.23c1.08-34-17.75-64.13-18.55-65.4C103.69,123.32,92.46,119.71,92.46,119.71Z"/><path class="cls-5" d="M145.32,39.2C125.75,13.65,103.15,1.92,103.15,1.92c-9.06-5.27-8.79,2-8.79,2l.3,10.71L89.14,24.7h0a59,59,0,0,0-7.8-.57c-3.92.2-2.26,2.62-2.26,2.62s7.79,9.8,21.59,4.36c8.11,5.22,18.73,13.61,25.76,25.07l9.13-6.66,8.05-2S150.45,46.22,145.32,39.2Z"/></svg>